<svg width="24" height="24" viewBox="0 0 24 24" fill="none" xmlns="http://www.w3.org/2000/svg">
<path d="M8.49088 11.29L14.1509 5.64C14.2438 5.54627 14.3544 5.47188 14.4763 5.42111C14.5982 5.37034 14.7289 5.3442 14.8609 5.3442C14.9929 5.3442 15.1236 5.37034 15.2455 5.42111C15.3673 5.47188 15.4779 5.54627 15.5709 5.64C15.7571 5.82736 15.8617 6.08081 15.8617 6.345C15.8617 6.60918 15.7571 6.86264 15.5709 7.05L10.6209 12.05L15.5709 17C15.7571 17.1874 15.8617 17.4408 15.8617 17.705C15.8617 17.9692 15.7571 18.2226 15.5709 18.41C15.4783 18.5045 15.3678 18.5797 15.2459 18.6312C15.1241 18.6826 14.9932 18.7094 14.8609 18.71C14.7286 18.7094 14.5977 18.6826 14.4758 18.6312C14.3539 18.5797 14.2435 18.5045 14.1509 18.41L8.49088 12.76C8.38937 12.6664 8.30836 12.5527 8.25296 12.4262C8.19755 12.2997 8.16895 12.1631 8.16895 12.025C8.16895 11.8869 8.19755 11.7503 8.25296 11.6238C8.30836 11.4973 8.38937 11.3836 8.49088 11.29Z" fill="white"/>
</svg>
