<svg width="15" height="15" viewBox="0 0 15 15" fill="none" xmlns="http://www.w3.org/2000/svg">
<g clip-path="url(#clip0_82_185)">
<path d="M6.25001 8.75L13.125 1.875M6.25001 8.75L8.43751 13.125C8.46494 13.1848 8.50896 13.2355 8.56436 13.2711C8.61975 13.3066 8.68419 13.3255 8.75001 13.3255C8.81584 13.3255 8.88027 13.3066 8.93567 13.2711C8.99107 13.2355 9.03509 13.1848 9.06251 13.125L13.125 1.875M6.25001 8.75L1.87501 6.5625C1.81517 6.53508 1.76447 6.49105 1.72892 6.43566C1.69337 6.38026 1.67447 6.31582 1.67447 6.25C1.67447 6.18418 1.69337 6.11974 1.72892 6.06434C1.76447 6.00895 1.81517 5.96492 1.87501 5.9375L13.125 1.875" stroke="#F8F8F8" stroke-width="2" stroke-linecap="round" stroke-linejoin="round"/>
</g>
<defs>
<clipPath id="clip0_82_185">
<rect width="15" height="15" fill="white"/>
</clipPath>
</defs>
</svg>
