<svg width="15" height="15" viewBox="0 0 15 15" fill="none" xmlns="http://www.w3.org/2000/svg">
<path d="M7.05621 9.69302L3.52496 6.15552C3.46638 6.09742 3.41989 6.02829 3.38815 5.95213C3.35642 5.87597 3.34009 5.79428 3.34009 5.71177C3.34009 5.62926 3.35642 5.54757 3.38815 5.47141C3.41989 5.39525 3.46638 5.32612 3.52496 5.26802C3.64206 5.15161 3.80047 5.08627 3.96559 5.08627C4.1307 5.08627 4.28911 5.15161 4.40621 5.26802L7.53121 8.36177L10.625 5.26802C10.7421 5.15161 10.9005 5.08627 11.0656 5.08627C11.2307 5.08627 11.3891 5.15161 11.5062 5.26802C11.5653 5.3259 11.6122 5.39493 11.6444 5.4711C11.6766 5.54727 11.6934 5.62908 11.6937 5.71177C11.6934 5.79446 11.6766 5.87626 11.6444 5.95243C11.6122 6.02861 11.5653 6.09763 11.5062 6.15552L7.97496 9.69302C7.91644 9.75646 7.8454 9.80709 7.76634 9.84172C7.68728 9.87635 7.6019 9.89423 7.51559 9.89423C7.42927 9.89423 7.34389 9.87635 7.26483 9.84172C7.18577 9.80709 7.11474 9.75646 7.05621 9.69302Z" fill="#959595"/>
</svg>
