<svg width="24" height="24" viewBox="0 0 24 24" fill="none" xmlns="http://www.w3.org/2000/svg">
<path d="M8.49137 11.29L14.1514 5.64C14.2443 5.54627 14.3549 5.47188 14.4768 5.42111C14.5986 5.37034 14.7294 5.3442 14.8614 5.3442C14.9934 5.3442 15.1241 5.37034 15.2459 5.42111C15.3678 5.47188 15.4784 5.54627 15.5714 5.64C15.7576 5.82736 15.8622 6.08081 15.8622 6.345C15.8622 6.60918 15.7576 6.86264 15.5714 7.05L10.6214 12.05L15.5714 17C15.7576 17.1874 15.8622 17.4408 15.8622 17.705C15.8622 17.9692 15.7576 18.2226 15.5714 18.41C15.4788 18.5045 15.3683 18.5797 15.2464 18.6312C15.1246 18.6826 14.9937 18.7094 14.8614 18.71C14.7291 18.7094 14.5982 18.6826 14.4763 18.6312C14.3544 18.5797 14.244 18.5045 14.1514 18.41L8.49137 12.76C8.38986 12.6664 8.30885 12.5527 8.25345 12.4262C8.19804 12.2997 8.16943 12.1631 8.16943 12.025C8.16943 11.8869 8.19804 11.7503 8.25345 11.6238C8.30885 11.4973 8.38986 11.3836 8.49137 11.29Z" fill="black"/>
</svg>
