<svg width="5" height="9" viewBox="0 0 5 9" fill="none" xmlns="http://www.w3.org/2000/svg">
<path d="M4.79075 4.82284L1.11188 8.49522C1.05146 8.55614 0.979569 8.60449 0.900363 8.63749C0.821157 8.67049 0.736202 8.68748 0.650397 8.68748C0.564592 8.68748 0.479636 8.67049 0.400431 8.63749C0.321225 8.60449 0.249337 8.55614 0.188913 8.49522C0.067854 8.37343 -9.57492e-05 8.2087 -9.57643e-05 8.03698C-9.57793e-05 7.86527 0.067854 7.70053 0.188913 7.57875L3.4063 4.32886L0.188912 1.11148C0.0678534 0.989695 -9.63948e-05 0.824957 -9.64098e-05 0.653242C-9.64248e-05 0.481527 0.0678533 0.31679 0.188912 0.195008C0.24911 0.133593 0.320896 0.0847337 0.400113 0.0512619C0.479329 0.0177911 0.564399 0.000372308 0.650396 1.52571e-05C0.736393 0.000372293 0.821463 0.017791 0.900679 0.0512618C0.979896 0.0847336 1.05168 0.133593 1.11188 0.195008L4.79075 3.86738C4.85673 3.92824 4.90938 4.00211 4.94539 4.08434C4.98141 4.16656 5 4.25535 5 4.34511C5 4.43487 4.98141 4.52366 4.94539 4.60589C4.90938 4.68811 4.85673 4.76198 4.79075 4.82284Z" fill="white"/>
</svg>
