<svg width="20" height="20" viewBox="0 0 20 20" fill="none" xmlns="http://www.w3.org/2000/svg">
<g clip-path="url(#clip0_17_68)">
<path d="M10.0001 1.66666C14.6026 1.66666 18.3334 5.3975 18.3334 10C18.3334 14.6025 14.6026 18.3333 10.0001 18.3333C5.39758 18.3333 1.66675 14.6025 1.66675 10C1.66675 5.3975 5.39758 1.66666 10.0001 1.66666ZM10.0001 5C9.77907 5 9.56711 5.0878 9.41083 5.24408C9.25455 5.40036 9.16675 5.61232 9.16675 5.83333V10C9.1668 10.221 9.25462 10.4329 9.41091 10.5892L11.9109 13.0892C12.0681 13.241 12.2786 13.325 12.4971 13.3231C12.7156 13.3212 12.9246 13.2335 13.0791 13.079C13.2336 12.9245 13.3212 12.7155 13.3231 12.497C13.325 12.2785 13.241 12.068 13.0892 11.9108L10.8334 9.655V5.83333C10.8334 5.61232 10.7456 5.40036 10.5893 5.24408C10.4331 5.0878 10.2211 5 10.0001 5Z" fill="black"/>
</g>
<defs>
<clipPath id="clip0_17_68">
<rect width="20" height="20" fill="white"/>
</clipPath>
</defs>
</svg>
