<svg width="22" height="22" viewBox="0 0 22 22" fill="none" xmlns="http://www.w3.org/2000/svg">
<path d="M14.2166 11.6508L9.02828 16.83C8.94306 16.9159 8.84168 16.9841 8.72998 17.0307C8.61827 17.0772 8.49846 17.1012 8.37745 17.1012C8.25644 17.1012 8.13662 17.0772 8.02492 17.0307C7.91321 16.9841 7.81183 16.9159 7.72661 16.83C7.55588 16.6583 7.46005 16.4259 7.46005 16.1838C7.46005 15.9416 7.55588 15.7093 7.72661 15.5375L12.2641 10.9542L7.72661 6.41667C7.55588 6.24492 7.46005 6.01259 7.46005 5.77042C7.46005 5.52825 7.55588 5.29592 7.72661 5.12417C7.81151 5.03756 7.91275 4.96865 8.02447 4.92144C8.13619 4.87424 8.25616 4.84967 8.37745 4.84917C8.49873 4.84967 8.6187 4.87424 8.73042 4.92144C8.84214 4.96865 8.94338 5.03756 9.02828 5.12417L14.2166 10.3033C14.3097 10.3892 14.3839 10.4934 14.4347 10.6093C14.4855 10.7253 14.5117 10.8505 14.5117 10.9771C14.5117 11.1037 14.4855 11.2289 14.4347 11.3449C14.3839 11.4608 14.3097 11.565 14.2166 11.6508Z" fill="white"/>
</svg>
