<svg width="9" height="5" viewBox="0 0 9 5" fill="none" xmlns="http://www.w3.org/2000/svg">
<path d="M3.86456 4.79075L0.192258 1.11195C0.131338 1.05153 0.0829846 0.979645 0.0499868 0.900441C0.0169889 0.821237 -1.86373e-07 0.736283 -1.90124e-07 0.650479C-1.93874e-07 0.564676 0.0169889 0.479722 0.0499867 0.400518C0.0829846 0.321314 0.131338 0.249427 0.192258 0.189005C0.314037 0.067948 0.478772 -5.16812e-07 0.650483 -5.24317e-07C0.822195 -5.31823e-07 0.98693 0.0679479 1.10871 0.189005L4.35853 3.40633L7.57586 0.189004C7.69764 0.0679476 7.86237 -8.39559e-07 8.03408 -8.47065e-07C8.20579 -8.5457e-07 8.37053 0.0679476 8.49231 0.189004C8.55372 0.249201 8.60258 0.320986 8.63605 0.400201C8.66952 0.479415 8.68694 0.564484 8.6873 0.650479C8.68694 0.736474 8.66952 0.821543 8.63605 0.900758C8.60258 0.979973 8.55372 1.05176 8.49231 1.11195L4.82001 4.79075C4.75914 4.85673 4.68527 4.90938 4.60305 4.94539C4.52083 4.98141 4.43204 5 4.34228 5C4.25252 5 4.16373 4.98141 4.08151 4.94539C3.99929 4.90938 3.92542 4.85673 3.86456 4.79075Z" fill="#959595"/>
</svg>
