<svg width="15" height="15" viewBox="0 0 15 15" fill="none" xmlns="http://www.w3.org/2000/svg">
<path d="M10.0325 1.11688L10.6363 1.28001C11.3746 1.47981 12.0477 1.86969 12.5883 2.41078C13.129 2.95187 13.5183 3.62525 13.7175 4.36376L13.88 4.96688L12.6738 5.29251L12.5106 4.68938C12.3683 4.16186 12.0901 3.68089 11.7039 3.29443C11.3176 2.90797 10.8368 2.62953 10.3094 2.48688L9.70626 2.32313L10.0325 1.11688ZM0.625015 1.25001H5.98751L6.91689 5.43126L5.75439 6.59376C6.4376 7.65777 7.34209 8.56205 8.40626 9.24501L9.56877 8.08313L13.75 9.01251V14.375H13.125C10.719 14.3788 8.36354 13.6849 6.34376 12.3775C4.85455 11.4137 3.58632 10.1455 2.62251 8.65626C1.31514 6.63647 0.621306 4.28099 0.625015 1.87501V1.25001ZM1.89189 2.50001C1.99703 4.44999 2.61094 6.33845 3.67251 7.97751C4.54025 9.31808 5.68194 10.4598 7.02251 11.3275C8.66155 12.3891 10.55 13.003 12.5 13.1081V10.015L9.96689 9.45251L8.60814 10.8119L8.19376 10.5763C6.62047 9.6821 5.31793 8.37955 4.42376 6.80626L4.18814 6.39188L5.54751 5.03313L4.98501 2.50001H1.89189ZM9.46126 3.22813L10.065 3.39126C10.4342 3.49116 10.7707 3.6861 11.041 3.95664C11.3114 4.22719 11.506 4.56388 11.6056 4.93313L11.7681 5.53626L10.5619 5.86188L10.3988 5.25876C10.356 5.1005 10.2725 4.95621 10.1566 4.84029C10.0407 4.72437 9.8964 4.64088 9.73814 4.59813L9.13502 4.43501L9.46126 3.22813Z" fill="#30D5DB"/>
</svg>
