<svg width="17" height="17" viewBox="0 0 17 17" fill="none" xmlns="http://www.w3.org/2000/svg">
<path d="M8.5 0C13.1945 0 17 3.80545 17 8.5C17 13.1945 13.1945 17 8.5 17C3.80545 17 0 13.1945 0 8.5C0 3.80545 3.80545 0 8.5 0ZM8.5 3.4C8.27456 3.4 8.05836 3.48955 7.89896 3.64896C7.73955 3.80836 7.65 4.02456 7.65 4.25V8.5C7.65005 8.72541 7.73963 8.94158 7.89905 9.10095L10.449 11.6509C10.6094 11.8058 10.8241 11.8915 11.0469 11.8895C11.2698 11.8876 11.483 11.7982 11.6406 11.6406C11.7982 11.483 11.8876 11.2698 11.8895 11.0469C11.8915 10.8241 11.8058 10.6094 11.6509 10.449L9.35 8.1481V4.25C9.35 4.02456 9.26044 3.80836 9.10104 3.64896C8.94163 3.48955 8.72543 3.4 8.5 3.4Z" fill="black"/>
</svg>
