<svg width="50" height="50" viewBox="0 0 50 50" fill="none" xmlns="http://www.w3.org/2000/svg">
<path d="M25 23.9583C23.6186 23.9583 22.2939 23.4096 21.3171 22.4328C20.3404 21.4561 19.7916 20.1313 19.7916 18.75C19.7916 17.3686 20.3404 16.0439 21.3171 15.0671C22.2939 14.0904 23.6186 13.5416 25 13.5416C26.3813 13.5416 27.7061 14.0904 28.6828 15.0671C29.6596 16.0439 30.2083 17.3686 30.2083 18.75C30.2083 19.4339 30.0736 20.1112 29.8118 20.7431C29.5501 21.375 29.1664 21.9492 28.6828 22.4328C28.1992 22.9164 27.625 23.3001 26.9931 23.5618C26.3612 23.8236 25.6839 23.9583 25 23.9583ZM25 4.16663C21.1322 4.16663 17.4229 5.70308 14.688 8.43799C11.9531 11.1729 10.4166 14.8822 10.4166 18.75C10.4166 29.6875 25 45.8333 25 45.8333C25 45.8333 39.5833 29.6875 39.5833 18.75C39.5833 14.8822 38.0468 11.1729 35.3119 8.43799C32.577 5.70308 28.8677 4.16663 25 4.16663Z" fill="#FF0000"/>
</svg>
